<svg width="57" height="57" viewBox="0 0 57 57" fill="none" xmlns="http://www.w3.org/2000/svg">
<path d="M39.271 4.39404L35.5867 13.6759L47.9615 26.0645L54.443 19.5763L39.271 4.39404ZM21.4202 4.97495C10.4822 12.431 2.84286 22.9262 2.55341 37.1383C9.48358 23.7993 20.6394 12.0792 30.9666 7.10755L21.4202 4.97495ZM10.8823 6.69698L7.59111 9.98828C8.40114 10.7631 9.20871 11.535 10.0195 12.3087C11.0089 11.152 12.0646 10.0432 13.1715 8.9792L10.8823 6.69698ZM50.2716 6.69698L47.391 9.57414L50.5882 12.7748C51.5801 11.8441 52.5722 10.9125 53.5628 9.98116L50.2716 6.69698ZM20.8879 16.6887C19.8159 17.6608 18.774 18.6655 17.7637 19.7015C20.5762 22.3879 23.3887 25.0813 26.1899 27.8007L29.1054 24.8921L20.8879 16.6886V16.6887ZM37.956 18.9954L7.5703 49.3355L10.8337 52.5885C20.1273 41.8866 30.4004 31.8261 40.8713 21.9141L37.9559 18.9951L37.956 18.9954ZM34.811 30.5908C33.8441 31.527 32.8804 32.4664 31.9198 33.4089C38.1426 39.5743 44.2957 45.917 50.3064 52.606L53.5837 49.3359L34.811 30.5907V30.5908Z" fill="black"/>
</svg>
