<svg width="20" height="20" viewBox="0 0 20 20" fill="none" xmlns="http://www.w3.org/2000/svg">
<path d="M17.7083 10H7.41246M3.77829 10H2.29163M3.77829 10C3.77829 9.5182 3.96969 9.05612 4.31038 8.71543C4.65107 8.37474 5.11315 8.18334 5.59496 8.18334C6.07677 8.18334 6.53885 8.37474 6.87954 8.71543C7.22023 9.05612 7.41163 9.5182 7.41163 10C7.41163 10.4818 7.22023 10.9439 6.87954 11.2846C6.53885 11.6253 6.07677 11.8167 5.59496 11.8167C5.11315 11.8167 4.65107 11.6253 4.31038 11.2846C3.96969 10.9439 3.77829 10.4818 3.77829 10ZM17.7083 15.5058H12.9183M12.9183 15.5058C12.9183 15.9878 12.7264 16.4504 12.3857 16.7911C12.0449 17.1319 11.5827 17.3233 11.1008 17.3233C10.619 17.3233 10.1569 17.1311 9.81622 16.7904C9.47552 16.4497 9.28413 15.9876 9.28413 15.5058M12.9183 15.5058C12.9183 15.0239 12.7264 14.5622 12.3857 14.2214C12.0449 13.8806 11.5827 13.6892 11.1008 13.6892C10.619 13.6892 10.1569 13.8806 9.81622 14.2213C9.47552 14.562 9.28413 15.024 9.28413 15.5058M9.28413 15.5058H2.29163M17.7083 4.49417H15.1208M11.4866 4.49417H2.29163M11.4866 4.49417C11.4866 4.01236 11.678 3.55029 12.0187 3.20959C12.3594 2.8689 12.8215 2.67751 13.3033 2.67751C13.5419 2.67751 13.7781 2.7245 13.9985 2.81579C14.2189 2.90709 14.4192 3.0409 14.5879 3.20959C14.7566 3.37829 14.8904 3.57856 14.9817 3.79896C15.073 4.01937 15.12 4.2556 15.12 4.49417C15.12 4.73274 15.073 4.96897 14.9817 5.18938C14.8904 5.40979 14.7566 5.61006 14.5879 5.77875C14.4192 5.94744 14.2189 6.08126 13.9985 6.17255C13.7781 6.26385 13.5419 6.31084 13.3033 6.31084C12.8215 6.31084 12.3594 6.11944 12.0187 5.77875C11.678 5.43806 11.4866 4.97598 11.4866 4.49417Z" stroke="black" stroke-width="1.5" stroke-miterlimit="10" stroke-linecap="round"/>
</svg>
