<svg width="44" height="45" viewBox="0 0 44 45" fill="none" xmlns="http://www.w3.org/2000/svg">
<path d="M29.3333 15.1667C30.7919 15.1667 32.1909 15.7461 33.2223 16.7776C34.2538 17.809 34.8333 19.208 34.8333 20.6667V35.3334C34.8333 36.792 34.2538 38.191 33.2223 39.2224C32.1909 40.2539 30.7919 40.8334 29.3333 40.8334H12.8333C11.3746 40.8334 9.97561 40.2539 8.94416 39.2224C7.91271 38.191 7.33325 36.792 7.33325 35.3334V20.6667C7.33325 19.208 7.91271 17.809 8.94416 16.7776C9.97561 15.7461 11.3746 15.1667 12.8333 15.1667V12.4167C12.8333 7.83335 16.4999 4.16669 21.0833 4.16669C25.6666 4.16669 29.3333 7.83335 29.3333 12.4167V15.1667ZM12.8333 17C11.8608 17 10.9282 17.3863 10.2405 18.074C9.55289 18.7616 9.16659 19.6942 9.16659 20.6667V35.3334C9.16659 36.3058 9.55289 37.2384 10.2405 37.9261C10.9282 38.6137 11.8608 39 12.8333 39H29.3333C30.3057 39 31.2383 38.6137 31.926 37.9261C32.6136 37.2384 32.9999 36.3058 32.9999 35.3334V20.6667C32.9999 19.6942 32.6136 18.7616 31.926 18.074C31.2383 17.3863 30.3057 17 29.3333 17H12.8333ZM27.4999 15.1667V12.4167C27.4999 10.7149 26.8239 9.08278 25.6205 7.87942C24.4172 6.67606 22.7851 6.00002 21.0833 6.00002C19.3814 6.00002 17.7493 6.67606 16.546 7.87942C15.3426 9.08278 14.6666 10.7149 14.6666 12.4167V15.1667H27.4999ZM21.0833 26.1667C20.3539 26.1667 19.6544 26.4564 19.1387 26.9721C18.623 27.4879 18.3333 28.1873 18.3333 28.9167C18.3333 29.646 18.623 30.3455 19.1387 30.8612C19.6544 31.377 20.3539 31.6667 21.0833 31.6667C21.8126 31.6667 22.5121 31.377 23.0278 30.8612C23.5435 30.3455 23.8333 29.646 23.8333 28.9167C23.8333 28.1873 23.5435 27.4879 23.0278 26.9721C22.5121 26.4564 21.8126 26.1667 21.0833 26.1667ZM21.0833 24.3334C22.2988 24.3334 23.4646 24.8162 24.3242 25.6758C25.1837 26.5353 25.6666 27.7011 25.6666 28.9167C25.6666 30.1323 25.1837 31.2981 24.3242 32.1576C23.4646 33.0171 22.2988 33.5 21.0833 33.5C19.8677 33.5 18.7019 33.0171 17.8423 32.1576C16.9828 31.2981 16.4999 30.1323 16.4999 28.9167C16.4999 27.7011 16.9828 26.5353 17.8423 25.6758C18.7019 24.8162 19.8677 24.3334 21.0833 24.3334Z" fill="white"/>
</svg>
