<svg width="55" height="55" viewBox="0 0 55 55" fill="none" xmlns="http://www.w3.org/2000/svg">
<path d="M21.4844 25.7812C21.2565 25.7812 21.0379 25.8718 20.8767 26.033C20.7155 26.1941 20.625 26.4127 20.625 26.6406V33.5156C20.625 33.7435 20.7155 33.9621 20.8767 34.1233C21.0379 34.2845 21.2565 34.375 21.4844 34.375C21.7123 34.375 21.9309 34.2845 22.092 34.1233C22.2532 33.9621 22.3438 33.7435 22.3438 33.5156V26.6406C22.3438 26.4127 22.2532 26.1941 22.092 26.033C21.9309 25.8718 21.7123 25.7812 21.4844 25.7812ZM27.5 13.75C32.2455 13.75 36.0938 12.3063 36.0938 10.5273C36.0938 8.74844 32.2437 7.30469 27.5 7.30469C22.7562 7.30469 18.9062 8.74844 18.9062 10.5273C18.9062 12.3063 22.7545 13.75 27.5 13.75ZM27.5 12.0312C24.652 12.0312 22.3438 11.2613 22.3438 10.3125C22.3438 9.36375 24.652 8.59375 27.5 8.59375C30.348 8.59375 32.6562 9.36375 32.6562 10.3125C32.6562 11.2613 30.348 12.0312 27.5 12.0312Z" fill="black"/>
<path d="M48.2281 12.43C47.2856 11.4876 46.0149 10.9468 44.6823 10.9209C44.6084 9.06813 43.7129 7.55047 42.6404 6.44187C41.5353 5.29891 40.1036 4.42578 38.6014 3.76922C35.5815 2.44922 31.6559 1.71875 27.4965 1.71875C23.3423 1.71875 19.415 2.44922 16.3968 3.76922C14.8947 4.42578 13.4612 5.29891 12.3578 6.44187C11.2389 7.60031 10.3125 9.20391 10.3125 11.1719V25.5853C9.51647 25.4675 8.70395 25.5377 7.93992 25.7902C7.17589 26.0427 6.48156 26.4705 5.91247 27.0394L4.6956 28.2545C4.2167 28.7333 3.83682 29.3018 3.57764 29.9274C3.31846 30.5531 3.18506 31.2237 3.18506 31.9009C3.18506 32.5781 3.31846 33.2486 3.57764 33.8743C3.83682 34.4999 4.2167 35.0684 4.6956 35.5472L10.3125 41.1641V43.8281C10.3125 45.7961 11.2389 47.3997 12.3578 48.5598C13.4629 49.7011 14.8964 50.5725 16.3986 51.2308C19.4167 52.5508 23.3423 53.2812 27.5 53.2812C31.075 53.2812 34.4558 52.7416 37.2315 51.7688C38.9022 51.1827 40.4765 50.3955 41.7467 49.3728C43.2489 48.1628 44.6875 46.3014 44.6875 43.8281V25.6953L49.445 20.9378C49.9239 20.459 50.3037 19.8905 50.5629 19.2649C50.8221 18.6393 50.9555 17.9687 50.9555 17.2915C50.9555 16.6143 50.8221 15.9437 50.5629 15.3181C50.3037 14.6924 49.9239 14.124 49.445 13.6452L48.2281 12.43ZM13.75 32.45V17.093C14.2897 17.4814 14.8689 17.8269 15.4687 18.1345V24.9219C15.4687 25.1498 15.5593 25.3684 15.7204 25.5295C15.8816 25.6907 16.1002 25.7812 16.3281 25.7812C16.556 25.7812 16.7746 25.6907 16.9358 25.5295C17.0969 25.3684 17.1875 25.1498 17.1875 24.9219V18.8977C20.0853 20.0148 23.6964 20.625 27.5 20.625C31.6559 20.625 35.5833 19.8945 38.5997 18.5745C40.1036 17.9163 41.537 17.0448 42.6404 15.9019C43.0048 15.5255 43.3486 15.1027 43.6459 14.6352C43.9761 14.4205 44.37 14.3257 44.7617 14.3666C45.1534 14.4076 45.5192 14.5819 45.7978 14.8603L47.0147 16.0772C47.3369 16.3995 47.5179 16.8366 47.5179 17.2923C47.5179 17.7481 47.3369 18.1852 47.0147 18.5075L41.25 24.2687V43.8281C41.25 44.8662 40.6484 45.8425 39.5897 46.695C39.0912 47.096 38.4988 47.4667 37.8125 47.807V40.3906C37.8125 40.1627 37.7219 39.9441 37.5608 39.783C37.3996 39.6218 37.181 39.5312 36.9531 39.5312C36.7252 39.5312 36.5066 39.6218 36.3454 39.783C36.1843 39.9441 36.0937 40.1627 36.0937 40.3906V48.5238C33.739 49.3488 30.7518 49.8438 27.5 49.8438C19.9065 49.8438 13.75 47.1505 13.75 43.8281V39.7392L7.12591 33.1169C6.96611 32.9572 6.83933 32.7677 6.75284 32.559C6.66634 32.3504 6.62182 32.1267 6.62182 31.9009C6.62182 31.675 6.66634 31.4513 6.75284 31.2427C6.83933 31.034 6.96611 30.8445 7.12591 30.6848L8.34278 29.4697C8.6651 29.1475 9.10219 28.9665 9.55794 28.9665C10.0137 28.9665 10.4508 29.1475 10.7731 29.4697L13.75 32.45ZM41.25 11.1719C41.25 14.4942 35.0934 17.1875 27.5 17.1875C19.9065 17.1875 13.75 14.4942 13.75 11.1719C13.75 7.84953 19.9065 5.15625 27.5 5.15625C35.0934 5.15625 41.25 7.84953 41.25 11.1719Z" fill="black"/>
</svg>
