<svg width="64" height="64" viewBox="0 0 64 64" fill="none" xmlns="http://www.w3.org/2000/svg">
<path d="M32 31.1333L27.8267 34.3947C27.5938 34.5493 27.3698 34.552 27.1547 34.4027C26.9396 34.2533 26.8765 34.0578 26.9654 33.816L28.544 28.5227L24.3894 25.5093C24.1672 25.3547 24.1094 25.1502 24.216 24.896C24.3227 24.6418 24.4969 24.5138 24.7387 24.512H29.9094L31.488 19.2507C31.5769 19.0089 31.7476 18.888 32 18.888C32.2525 18.888 32.4232 19.0089 32.512 19.2507L34.0934 24.512H39.2454C39.4889 24.512 39.6667 24.6391 39.7787 24.8933C39.8907 25.1476 39.8347 25.352 39.6107 25.5067L35.4427 28.5227L37.0214 33.816C37.1103 34.0578 37.0472 34.2533 36.832 34.4027C36.6169 34.552 36.3929 34.5493 36.16 34.3947L32 31.1333ZM32 53.232L21.432 56.3893C20.7476 56.6329 20.1156 56.5307 19.536 56.0827C18.9565 55.6347 18.6667 55.0516 18.6667 54.3333V39.656C16.9778 37.9956 15.6667 36.0507 14.7334 33.8213C13.8 31.592 13.3334 29.2071 13.3334 26.6667C13.3334 21.4631 15.1432 17.0516 18.7627 13.432C22.3823 9.81245 26.7947 8.00178 32 8C37.2054 7.99822 41.6178 9.808 45.2374 13.4293C48.8569 17.0507 50.6667 21.4631 50.6667 26.6667C50.6667 29.2071 50.2 31.592 49.2667 33.8213C48.3334 36.0507 47.0223 37.9947 45.3334 39.6533V54.3307C45.3334 55.0489 45.0436 55.632 44.464 56.08C43.8845 56.528 43.2534 56.6302 42.5707 56.3867L32 53.232ZM32 42.6667C36.4445 42.6667 40.2223 41.1111 43.3334 38C46.4445 34.8889 48 31.1111 48 26.6667C48 22.2222 46.4445 18.4444 43.3334 15.3333C40.2223 12.2222 36.4445 10.6667 32 10.6667C27.5556 10.6667 23.7778 12.2222 20.6667 15.3333C17.5556 18.4444 16 22.2222 16 26.6667C16 31.1111 17.5556 34.8889 20.6667 38C23.7778 41.1111 27.5556 42.6667 32 42.6667ZM21.3334 53.4507L32 50.4613L42.6667 53.4507V41.904C41.1805 42.9973 39.528 43.8418 37.7094 44.4373C35.8943 45.0347 33.9912 45.3333 32 45.3333C30.0089 45.3333 28.1058 45.0356 26.2907 44.44C24.4756 43.8445 22.8232 42.9991 21.3334 41.904V53.4507Z" fill="black"/>
</svg>
